<svg id="Capa_1" enable-background="new 0 0 512 512" height="512" viewBox="0 0 512 512" width="512" xmlns="http://www.w3.org/2000/svg"><g><path d="m256 271c-38.968 0-70.671 31.703-70.671 70.671s31.703 70.671 70.671 70.671 70.671-31.703 70.671-70.671-31.703-70.671-70.671-70.671zm16.867 85.671h-33.734v-30h33.734z"/><path d="m224.062 0h155.279v141.342h-155.279z"/><path d="m132.659 0h61.402v141.342h-61.402z"/><path d="m409.341 0v171.342h-306.682v-171.342h-45.575l-57.084 58.937v453.063h512v-512zm-153.341 442.342c-55.51 0-100.671-45.161-100.671-100.671s45.161-100.671 100.671-100.671 100.671 45.161 100.671 100.671-45.161 100.671-100.671 100.671z"/></g></svg>